<svg width="3518" height="2809" viewBox="0 0 3518 2809" fill="none" xmlns="http://www.w3.org/2000/svg">
<g id="Group 318">
<path id="Polygon 49" d="M3518 1389.56L680.071 0.0056619V0.0056619C250.977 873.495 249.209 1896.17 675.28 2771.14L693.487 2808.52L3518 1389.56Z" fill="#3BB143"/>
<path id="Polygon 48" d="M3450 1389.51L700 43.0078V43.0078C284.201 889.433 282.488 1880.42 695.358 2728.28L713 2764.51L3450 1389.51Z" fill="black"/>
<path id="ABS" d="M589.078 1796.01H485.643L784.808 981.262H886.651L1185.82 1796.01H1082.38L838.912 1110.16H832.547L589.078 1796.01ZM627.269 1477.75H1044.19V1565.27H627.269V1477.75ZM1312.72 1796.01V981.262H1597.57C1654.32 981.262 1701.13 991.075 1738 1010.7C1774.86 1030.06 1802.31 1056.19 1820.35 1089.07C1838.38 1121.69 1847.4 1157.9 1847.4 1197.68C1847.4 1232.69 1841.17 1261.6 1828.7 1284.4C1816.5 1307.21 1800.32 1325.25 1780.17 1338.51C1760.28 1351.77 1738.66 1361.58 1715.32 1367.95V1375.9C1740.25 1377.5 1765.31 1386.25 1790.51 1402.16C1815.71 1418.07 1836.79 1440.88 1853.76 1470.59C1870.74 1500.29 1879.23 1536.63 1879.23 1579.59C1879.23 1620.43 1869.94 1657.17 1851.38 1689.79C1832.81 1722.41 1803.51 1748.27 1763.46 1767.36C1723.41 1786.46 1671.3 1796.01 1607.11 1796.01H1312.72ZM1411.38 1708.49H1607.11C1671.56 1708.49 1717.31 1696.02 1744.36 1671.09C1771.68 1645.9 1785.34 1615.4 1785.34 1579.59C1785.34 1552.01 1778.31 1526.55 1764.25 1503.21C1750.2 1479.6 1730.17 1460.77 1704.18 1446.72C1678.19 1432.4 1647.43 1425.23 1611.89 1425.23H1411.38V1708.49ZM1411.38 1339.3H1594.38C1624.09 1339.3 1650.87 1333.47 1674.74 1321.8C1698.88 1310.13 1717.97 1293.69 1732.03 1272.47C1746.35 1251.25 1753.51 1226.32 1753.51 1197.68C1753.51 1161.87 1741.05 1131.51 1716.12 1106.58C1691.19 1081.38 1651.67 1068.78 1597.57 1068.78H1411.38V1339.3ZM2486.9 1184.95C2482.13 1144.64 2462.77 1113.34 2428.82 1091.06C2394.87 1068.78 2353.23 1057.64 2303.9 1057.64C2267.83 1057.64 2236.27 1063.48 2209.22 1075.15C2182.43 1086.82 2161.48 1102.86 2146.37 1123.29C2131.51 1143.71 2124.09 1166.91 2124.09 1192.9C2124.09 1214.65 2129.26 1233.35 2139.6 1249C2150.21 1264.38 2163.74 1277.24 2180.18 1287.59C2196.62 1297.67 2213.86 1306.02 2231.9 1312.65C2249.93 1319.02 2266.51 1324.19 2281.63 1328.17L2364.37 1350.44C2385.59 1356.01 2409.2 1363.7 2435.19 1373.52C2461.44 1383.33 2486.51 1396.72 2510.38 1413.7C2534.51 1430.41 2554.4 1451.89 2570.05 1478.15C2585.7 1504.4 2593.52 1536.63 2593.52 1574.82C2593.52 1618.84 2581.98 1658.63 2558.91 1694.16C2536.1 1729.7 2502.68 1757.95 2458.66 1778.9C2414.9 1799.85 2361.72 1810.33 2299.13 1810.33C2240.78 1810.33 2190.26 1800.91 2147.56 1782.08C2105.12 1763.25 2071.71 1737 2047.31 1703.31C2023.17 1669.63 2009.51 1630.51 2006.33 1585.96H2108.17C2110.83 1616.72 2121.17 1642.18 2139.2 1662.34C2157.5 1682.23 2180.58 1697.08 2208.43 1706.89C2236.54 1716.44 2266.77 1721.22 2299.13 1721.22C2336.79 1721.22 2370.61 1715.12 2400.58 1702.92C2430.55 1690.45 2454.28 1673.21 2471.79 1651.2C2489.29 1628.92 2498.04 1602.93 2498.04 1573.23C2498.04 1546.17 2490.48 1524.16 2475.37 1507.19C2460.25 1490.21 2440.36 1476.42 2415.69 1465.81C2391.03 1455.2 2364.37 1445.92 2335.73 1437.97L2235.48 1409.32C2171.83 1391.02 2121.43 1364.9 2084.3 1330.95C2047.17 1297 2028.61 1252.58 2028.61 1197.68C2028.61 1152.06 2040.94 1112.28 2065.61 1078.33C2090.54 1044.12 2123.95 1017.6 2165.86 998.766C2208.03 979.67 2255.1 970.122 2307.09 970.122C2359.6 970.122 2406.28 979.538 2447.12 998.368C2487.96 1016.93 2520.32 1042.39 2544.19 1074.75C2568.33 1107.11 2581.06 1143.84 2582.38 1184.95H2486.9Z" fill="#3BB143"/>
</g>
</svg>
